<?xml version="1.0" encoding="utf-8"?>
<!-- Generator: Adobe Illustrator 16.0.0, SVG Export Plug-In . SVG Version: 6.00 Build 0)  -->
<!DOCTYPE svg PUBLIC "-//W3C//DTD SVG 1.1//EN" "http://www.w3.org/Graphics/SVG/1.1/DTD/svg11.dtd">
<svg version="1.1"
	 id="Layer_1" shape-rendering="geometricPrecision" text-rendering="geometricPrecision" image-rendering="optimizeQuality"
	 xmlns="http://www.w3.org/2000/svg" xmlns:xlink="http://www.w3.org/1999/xlink" x="0px" y="0px" width="1080px" height="1080px"
	 viewBox="0 0 1080 1080" enable-background="new 0 0 1080 1080" xml:space="preserve">
<g display="none">
	<text transform="matrix(1 0 0 1 57.3606 168.04)" display="inline"><tspan x="0" y="0" fill="#606060" font-family="'Montserrat-Regular'" font-size="41.8071">Online </tspan><tspan x="179.224" y="0" fill="#606060" font-family="'Montserrat-ExtraLight'" font-size="41.8071">Education</tspan></text>
	<g display="inline">
		<path fill="#DB83EC" d="M166.067,352.379H68.013c-4.094,0-7.412-3.319-7.412-7.413v-14.904c0-4.093,3.318-7.413,7.412-7.413
			h98.054c4.093,0,7.413,3.32,7.413,7.413v14.904C173.48,349.06,170.16,352.379,166.067,352.379z"/>
		<text transform="matrix(1 0 0 1 69.2063 343.4658)" fill="#FAFAFA" font-family="'Montserrat-Regular'" font-size="15.5342">READ MORE</text>
	</g>
	<rect x="60.602" y="204.659" display="inline" fill="none" width="366.508" height="101.73"/>
	<text transform="matrix(1 0 0 1 60.6008 214.9995)" display="inline"><tspan x="0" y="0" fill="#606060" font-family="'Montserrat-Light'" font-size="13.9357">Lorem ipsum dolor sit amet, consectetuer adipiscing </tspan><tspan x="0" y="16.723" fill="#606060" font-family="'Montserrat-Light'" font-size="13.9357">elit, sed diam nonummy nibh euismod tincidunt ut </tspan><tspan x="0" y="33.445" fill="#606060" font-family="'Montserrat-Light'" font-size="13.9357">laoreet dolore magna aliquam erat volutpat. Ut wisi </tspan><tspan x="0" y="50.168" fill="#606060" font-family="'Montserrat-Light'" font-size="13.9357">enim ad minim veniam, quis nostrud exerci tation </tspan><tspan x="0" y="66.891" fill="#606060" font-family="'Montserrat-Light'" font-size="13.9357">ullamcorper suscipit lobortis nisl ut aliquip ex ea </tspan><tspan x="0" y="83.614" fill="#606060" font-family="'Montserrat-Light'" font-size="13.9357">commodo consequat. Duis autem vel eum iriure </tspan></text>
</g>
<g>
	<path opacity="0.2" fill="#DB83EC" d="M420.653,593.318c-11.438-21.752-34.243-36.598-60.526-36.598
		c-19.548,0-37.165,8.221-49.624,21.374c-16.872-13.37-38.188-21.374-61.387-21.374c-27.798,0-52.902,11.481-70.878,29.935
		c-7.712-3.319-16.208-5.166-25.139-5.166c-13.774,0-26.516,4.392-36.932,11.829H420.653z"/>
	<path opacity="0.2" fill="#DB83EC" d="M647.816,421.483c12.733-24.22,38.127-40.747,67.39-40.747
		c21.766,0,41.378,9.151,55.252,23.797c18.787-14.885,42.519-23.797,68.348-23.797c30.947,0,58.902,12.781,78.913,33.329
		c8.591-3.697,18.05-5.754,27.991-5.754c15.338,0,29.521,4.891,41.12,13.172H647.816z"/>
	<path opacity="0.1" fill="#DB83EC" d="M110.498,1063.044h824.758c53.314,0,87.654-56.195,63.674-103.813
		c-0.174-0.343-0.347-0.681-0.516-1.022c-23.76-47.332-42.143-104.26-19.251-152.014c16.782-35.006,54.394-61.778,55.28-100.59
		c0.6-26.34-17.501-50.546-40.534-63.341c-23.037-12.79-50.222-15.873-76.571-15.713c-40.73,0.248-87.363,5.62-116.468-22.869
		c-18.373-17.983-24.158-44.859-29.085-70.087c-8.103-41.483-16.206-82.964-24.313-124.446
		c-5.818-29.789-13.583-62.653-38.68-79.725c-22.55-15.34-53.681-12.865-77.914-0.352c-24.229,12.513-42.87,33.502-59.958,54.757
		c-70.462,87.657-146.005,189.612-196.896,290.749c-11.221,22.296-39.941,35.156-63.925,28.235
		c-22.009-6.348-40.695-20.837-61.864-29.55c-21.007-8.642-48.05-10.204-63.79,6.175c-15.397,16.019-13.303,42.139-5.187,62.825
		c8.116,20.687,21.188,39.66,25.203,61.516c5.483,29.84-6.921,60.295-23.895,85.444c-16.972,25.148-38.604,46.929-55.147,72.363
		c-16.544,25.435-27.932,56.485-20.938,86.007C105.751,1052.956,107.812,1058.159,110.498,1063.044z"/>
	<g>
		<path fill="#D566C9" d="M162.485,663.49c9.383,63.05,67.041,143.206,155.024,206.279c87.984,63.069,182.41,91.934,245.13,80.574
			c-9.384-63.05-67.037-143.206-155.022-206.275C319.633,680.995,225.207,652.131,162.485,663.49z"/>
		<path opacity="0.5" fill="#D566C9" d="M230.672,714.791c-0.852,1.159-0.596,2.792,0.564,3.637
			c22.851,16.722,45.942,33.251,69.226,49.589c0.208,0.201,0.439,0.37,0.699,0.492c18.23,12.781,36.58,25.439,55.035,37.963
			l-69.704,5.302c-1.435,0.107-2.509,1.36-2.4,2.791c0.111,1.44,1.359,2.515,2.795,2.402l76.255-5.804
			c11.516,7.784,23.069,15.512,34.658,23.183c0.421,0.896,1.303,1.459,2.265,1.492c19.107,12.626,38.309,25.097,57.583,37.399
			l-89.663,5.146c-1.437,0.08-2.533,1.314-2.451,2.75c0.085,1.426,1.313,2.533,2.75,2.449l96.874-5.556
			c20.051,12.738,40.17,25.304,60.35,37.657c1.227,0.751,2.83,0.366,3.58-0.858c0.354-0.577,0.455-1.234,0.338-1.849
			c-0.131-0.694-0.544-1.337-1.196-1.731c-42.331-25.923-84.42-52.728-126.072-80.269l-28.369-88.514
			c-0.438-1.365-1.906-2.125-3.275-1.684c-1.37,0.44-2.11,1.904-1.687,3.274l26.385,82.324
			c-30.515-20.26-60.786-40.909-90.732-61.905c-4.284-13.475-6.711-27.462-7.184-41.603c-0.004-0.137-0.02-0.272-0.045-0.404
			c-0.237-1.238-1.346-2.153-2.645-2.111c-1.438,0.048-2.563,1.253-2.516,2.688c0.417,12.396,2.293,24.67,5.547,36.611
			c-21.284-14.986-42.409-30.127-63.326-45.432C233.151,713.374,231.521,713.628,230.672,714.791z"/>
	</g>
	<g>
		<path fill="#9366C9" d="M270.179,423.543c-22.578,74.608-0.729,193.356,63.576,309.063
			c64.304,115.712,153.608,196.976,228.884,217.198c22.582-74.606,0.732-193.354-63.574-309.065
			C434.762,525.027,345.459,443.768,270.179,423.543z"/>
		<path opacity="0.5" fill="#9366C9" d="M318.752,515.892c-1.548,0.84-2.12,2.778-1.278,4.321
			c16.523,30.422,33.411,60.77,50.615,90.995c0.123,0.333,0.293,0.638,0.515,0.91c13.473,23.661,27.144,47.248,41.002,70.735
			l-79.832-30.572c-1.642-0.629-3.483,0.192-4.113,1.834c-0.627,1.647,0.191,3.486,1.836,4.115l87.334,33.439
			c8.665,14.624,17.396,29.207,26.201,43.742c-0.005,1.211,0.675,2.294,1.722,2.834c14.524,23.947,29.235,47.769,44.113,71.443
			l-101.812-41.176c-1.632-0.657-3.488,0.132-4.147,1.76c-0.65,1.618,0.128,3.485,1.758,4.147l110.003,44.483
			c15.507,24.563,31.185,48.97,47.036,73.176c0.962,1.473,2.936,1.886,4.405,0.919c0.689-0.45,1.149-1.126,1.342-1.867
			c0.216-0.835,0.094-1.76-0.422-2.538c-33.251-50.78-65.768-102.415-97.422-154.627l14.896-112.681
			c0.232-1.74-0.995-3.346-2.737-3.575c-1.743-0.226-3.329,1.004-3.578,2.74l-13.856,104.803
			c-23.146-38.347-45.819-76.999-67.951-115.857c2.305-17.135,6.934-33.871,13.801-49.748c0.066-0.154,0.12-0.313,0.161-0.469
			c0.386-1.497-0.361-3.088-1.82-3.721c-1.615-0.697-3.49,0.047-4.188,1.66c-6.018,13.917-10.36,28.471-13.001,43.373
			c-15.699-27.689-31.138-55.473-46.265-83.322C322.231,515.625,320.298,515.052,318.752,515.892z"/>
	</g>
	<linearGradient id="SVGID_1_" gradientUnits="userSpaceOnUse" x1="352.2478" y1="1027.3057" x2="352.2478" y2="758.0596">
		<stop  offset="0" style="stop-color:#005AA1"/>
		<stop  offset="1" style="stop-color:#00CFA1"/>
	</linearGradient>
	<path fill="url(#SVGID_1_)" d="M602.112,867.564c0-35.147-28.489-63.637-63.633-63.637c-4.037,0-7.983,0.39-11.812,1.112
		c-17.44-28.193-48.622-46.98-84.206-46.98c-42.25,0-78.297,26.491-92.488,63.759c-5.893-1.656-12.101-2.562-18.521-2.562
		c-26.167,0-48.89,14.709-60.377,36.306c-5.618-3.997-12.469-6.367-19.888-6.367c-2.182,0-4.313,0.212-6.383,0.601
		c-9.421-15.234-26.272-25.388-45.5-25.388c-22.831,0-42.308,14.315-49.976,34.453c-3.185-0.892-6.538-1.385-10.009-1.385
		c-20.399,0-36.935,16.539-36.935,36.939c0,2.745,0.309,5.419,0.877,7.995h161.461h15.231h90.123v124.895h157.787V902.411h63.852
		C598.283,892.398,602.112,880.43,602.112,867.564z"/>
	<g>
		<path fill="#D566C9" d="M1008.976,646.369c-41.895,0-111.119,45.821-141.536,128.741c-31.328,82.573-9.047,162.542,22.61,189.984
			c23.454-36.282,41.181-95.053,65.016-157.291C977.826,745.162,1002.932,689.15,1008.976,646.369z"/>
		<path opacity="0.5" fill="#D566C9" d="M966.153,690.961c-0.681-0.544-1.755-0.323-2.397,0.497
			c-12.678,16.104-23.863,33.317-33.421,51.354c-0.122,0.169-0.221,0.352-0.291,0.544c-7.455,14.132-13.911,28.767-19.312,43.762
			c-3.866-15.159-6.794-30.952-8.681-47.267c-0.112-1.009-0.947-1.558-1.862-1.225c-0.919,0.333-1.571,1.432-1.45,2.439
			c2.136,17.914,5.523,35.194,10.018,51.705c-3.195,9.398-5.986,18.932-8.352,28.555c-0.445,0.517-0.614,1.248-0.455,1.882
			c-3.805,15.887-6.461,32.027-7.943,48.261c-9.004-18.002-16.708-37.305-22.859-57.725c-0.295-0.98-1.215-1.384-2.055-0.887
			c-0.83,0.498-1.281,1.708-0.98,2.693c6.756,22.137,15.319,42.959,25.369,62.248c-1.225,16.891-1.188,33.861,0.131,50.719
			c0.08,1.028,0.85,1.783,1.718,1.689c0.403-0.042,0.76-0.263,1.014-0.591c0.286-0.371,0.445-0.873,0.403-1.417
			c-2.735-35.067,0.122-70.608,8.432-104.935c15.45-13.991,31.675-26.097,48.308-36.306c0.774-0.475,1.061-1.488,0.647-2.276
			s-1.375-1.041-2.153-0.577c-15.573,9.506-30.793,20.659-45.371,33.444c6.526-25.078,15.962-49.453,28.095-72.48
			c8.324-4.683,17.107-7.751,25.951-9.187c0.085-0.015,0.169-0.038,0.254-0.062c0.77-0.253,1.332-1.051,1.295-1.896
			c-0.038-0.938-0.798-1.586-1.699-1.445c-7.774,1.225-15.521,3.679-22.976,7.343c8.924-16.243,19.189-31.787,30.694-46.412
			C966.861,692.604,966.832,691.505,966.153,690.961z"/>
	</g>
	<path opacity="0.1" d="M986.829,723.603c-0.516,0.005-1.032,0.037-1.553,0.089c-14.634,1.455-22.047,17.857-27.185,31.643
		c-3.674,9.857-7.794,19.833-14.911,27.584c-7.118,7.746-17.881,12.936-28.175,10.749c-13.785-2.923-24.116-18.021-38.131-16.558
		c-4.903,0.516-9.079,3.04-12.49,6.587c-26.702,79.477-4.894,154.908,25.665,181.398c23.454-36.282,41.181-95.053,65.016-157.291
		C965.899,777.986,977.24,749.704,986.829,723.603z"/>
	<g>
		<path fill="#E44089" d="M781.31,901.628c2.417-18.289,14.911-36.611,33.111-39.633c6.563-1.093,13.404-0.164,19.855-1.811
			c11.763-3.008,19.833-13.959,24.38-25.215c4.546-11.256,6.578-23.445,11.696-34.453c4.331-9.294,12.284-18.34,22.54-18.472
			c14.09-0.183,23.005,15.793,36.466,19.964c10.05,3.111,21.24-1.074,29.038-8.141c7.793-7.065,12.805-16.628,17.36-26.11
			c6.371-13.259,15.248-28.916,29.958-29.033c8.163-0.065,15.633,5.203,20.344,11.875s7.146,14.644,9.511,22.46
			c4.546,15.062,8.271,33.679-3.031,44.621c-7.263,7.032-18.608,8.267-26.247,14.896c-11.434,9.928-10.604,27.49-10.289,42.631
			c0.398,19.631-1.68,39.318-6.17,58.433c-1.215,5.156-2.97,10.782-7.512,13.503c-6.09,3.646-13.737,0.343-20.743-0.783
			c-16.29-2.623-32.237,7.535-42.583,20.382c-10.351,12.851-16.727,28.386-25.581,42.302c-8.854,13.921-21.456,26.932-37.699,29.804
			c-20.574,3.631-40.965-10.604-51.184-28.823c-9.745-17.378-10.313-36.479-15.104-55.294
			C784.927,937.075,778.856,920.217,781.31,901.628z"/>
		<path fill="#E44089" d="M1008.347,781.876c-0.878-0.943-2.355-0.994-3.294-0.112c-18.542,17.294-36.963,34.833-55.238,52.573
			c-0.211,0.145-0.398,0.323-0.549,0.529c-14.306,13.893-28.518,27.908-42.631,42.04l7.033-62.205
			c0.146-1.276-0.773-2.436-2.055-2.576c-1.281-0.146-2.435,0.774-2.576,2.055l-7.694,68.052
			c-8.778,8.82-17.515,17.688-26.209,26.594c-0.858,0.221-1.501,0.9-1.693,1.74c-14.315,14.69-28.504,29.489-42.561,44.381
			l10.52-79.734c0.169-1.28-0.728-2.449-2.009-2.617c-1.267-0.165-2.449,0.727-2.618,2.003l-11.363,86.148
			c-14.573,15.502-29.001,31.093-43.255,46.769c-0.868,0.953-0.798,2.426,0.154,3.294c0.446,0.403,1.01,0.605,1.567,0.605
			c0.634,0,1.267-0.254,1.727-0.765c29.901-32.886,60.55-65.41,91.765-97.423l82.615-10.103c1.281-0.154,2.191-1.318,2.036-2.599
			c-0.159-1.276-1.323-2.177-2.6-2.032l-76.844,9.394c22.943-23.44,46.188-46.604,69.68-69.421
			c12.574-1.507,25.284-1.296,37.803,0.661c0.122,0.019,0.244,0.028,0.361,0.028c1.131,0,2.12-0.821,2.304-1.976
			c0.197-1.271-0.671-2.463-1.947-2.66c-10.97-1.718-22.085-2.126-33.13-1.267c16.75-16.206,33.618-32.248,50.589-48.078
			C1009.172,784.292,1009.224,782.819,1008.347,781.876z"/>
	</g>
	<path fill="#62386B" d="M1006.982,1080H69.156c-4.682,0-8.478-3.796-8.478-8.479l0,0c0-4.683,3.796-8.478,8.478-8.478h937.825
		c4.687,0,8.482,3.795,8.482,8.478l0,0C1015.464,1076.204,1011.668,1080,1006.982,1080z"/>
	
		<linearGradient id="SVGID_2_" gradientUnits="userSpaceOnUse" x1="468.9719" y1="1063.0449" x2="468.9719" y2="918.6934" gradientTransform="matrix(-1 0 0 1 1209.8774 0)">
		<stop  offset="0" style="stop-color:#005AA1"/>
		<stop  offset="1" style="stop-color:#00CFA1"/>
	</linearGradient>
	<path fill="url(#SVGID_2_)" d="M554.677,964.561c4.034,0,7.98,0.39,11.81,1.112c17.439-28.194,48.622-46.98,84.205-46.98
		c42.251,0,78.299,26.49,92.487,63.758c5.893-1.656,12.101-2.562,18.523-2.562c26.167,0,48.89,14.709,60.376,36.306
		c5.62-3.992,12.471-6.366,19.889-6.366c2.182,0,4.316,0.211,6.386,0.601c9.421-15.234,26.27-25.389,45.497-25.389
		c22.831,0,42.307,14.315,49.979,34.453c3.181-0.892,6.536-1.384,10.008-1.384c20.4,0,36.935,16.539,36.935,36.939
		c0,2.744-0.31,5.419-0.877,7.995H828.431h-15.229H501.439c-6.566-10.013-10.397-21.982-10.397-34.848
		C491.041,993.05,519.531,964.561,554.677,964.561z"/>
	<g>
		<path fill="#FFFFFF" d="M476.431,987.128H133.91c1.473,9.352,2.294,19.664,2.294,30.512c0,10.853-0.821,21.165-2.294,30.517
			h342.521c16.825,0,30.516-13.687,30.516-30.517C506.947,1000.814,493.256,987.128,476.431,987.128z"/>
		<g>
			<path fill="#D566C9" d="M476.431,1063.044H114.123v-14.888h362.308c16.825,0,30.516-13.687,30.516-30.517
				c0-16.825-13.691-30.512-30.516-30.512H114.123v-14.887h362.308c25.031,0,45.399,20.367,45.399,45.398
				C521.83,1042.676,501.462,1063.044,476.431,1063.044z"/>
		</g>
		<path opacity="0.1" d="M476.431,987.128H133.91c1.051,6.672,1.764,13.837,2.089,21.335h340.432
			c13.067,0,24.212,8.276,28.553,19.847c1.246-3.327,1.963-6.911,1.963-10.67C506.947,1000.814,493.256,987.128,476.431,987.128z"/>
		<polygon fill="#D566C9" points="211.097,1039.091 200.317,1033.757 189.536,1039.091 189.536,1017.527 211.097,1017.527 		"/>
	</g>
	<path opacity="0.1" d="M114.123,987.128h19.787c0.325,2.064,0.605,4.19,0.864,6.344c0.081,0.671,0.155,1.352,0.23,2.032
		c0.174,1.595,0.327,3.214,0.464,4.851c0.058,0.699,0.125,1.39,0.176,2.093c0.36,4.913,0.56,9.989,0.56,15.192
		c0,10.853-0.821,21.165-2.294,30.517h-19.787v14.888h242.782l90.803-90.803H114.123V987.128z"/>
	<g>
		<path fill="#FFFFFF" d="M85.401,896.321h342.521c-1.473,9.355-2.294,19.668-2.294,30.516s0.821,21.166,2.294,30.517H85.401
			c-16.826,0-30.516-13.687-30.516-30.517C54.885,910.013,68.575,896.321,85.401,896.321z"/>
		<g>
			<path fill="#E44089" d="M85.401,972.241h362.306v-14.888H85.401c-16.826,0-30.516-13.687-30.516-30.517
				c0-16.824,13.69-30.516,30.516-30.516h362.306v-14.883H85.401C60.367,881.438,40,901.806,40,926.837
				C40,951.873,60.367,972.241,85.401,972.241z"/>
		</g>
		<path opacity="0.1" d="M85.401,896.321h342.521c-1.051,6.677-1.765,13.841-2.09,21.339H85.401
			c-13.069,0-24.213,8.271-28.554,19.847c-1.247-3.326-1.962-6.911-1.962-10.67C54.885,910.013,68.575,896.321,85.401,896.321z"/>
		<polygon fill="#E44089" points="380.858,948.401 370.077,943.066 359.296,948.401 359.296,926.837 380.858,926.837 		"/>
	</g>
	<g>
		<g>
			<path fill="#FF9A3B" d="M869.588,1063.044H508.824c-22.526,0-40.787-18.262-40.787-40.787V496.242
				c0-22.526,18.261-40.787,40.787-40.787h360.764c22.526,0,40.787,18.261,40.787,40.787v526.015
				C910.375,1044.782,892.115,1063.044,869.588,1063.044z"/>
			<circle fill="#FFFFFF" cx="689.745" cy="475.215" r="4.765"/>
			<path fill="#FFFFFF" d="M869.583,470.256h-29.981c-2.458,0-4.452,1.992-4.452,4.45l0,0c0,10.149-8.229,18.378-18.378,18.378
				H561.64c-10.149,0-18.379-8.229-18.379-18.378l0,0c0-2.458-1.994-4.45-4.451-4.45h-29.986c-14.353,0-25.989,11.634-25.989,25.986
				v526.015c0,14.353,11.636,25.988,25.989,25.988h360.759c14.357,0,25.993-11.636,25.993-25.988V496.245
				C895.576,481.892,883.941,470.256,869.583,470.256z"/>
			<path opacity="0.06" d="M869.588,455.455H689.747v607.589h179.841c22.526,0,40.787-18.262,40.787-40.787V496.242
				C910.375,473.716,892.115,455.455,869.588,455.455z"/>
			<path opacity="0.06" d="M750.076,1035.028H629.414c-3.772,0-6.827-3.06-6.827-6.832l0,0c0-3.771,3.055-6.831,6.827-6.831h120.662
				c3.771,0,6.831,3.06,6.831,6.831l0,0C756.907,1031.969,753.848,1035.028,750.076,1035.028z"/>
		</g>
		<rect x="516.598" y="520.621" opacity="0.06" width="346.763" height="211.972"/>
		<g>
			<rect x="516.598" y="759.247" opacity="0.06" width="119.455" height="63.401"/>
			<rect x="516.598" y="847.863" opacity="0.06" width="119.455" height="63.401"/>
			<rect x="516.598" y="936.475" opacity="0.06" width="119.455" height="63.401"/>
		</g>
		<path opacity="0.06" d="M855.78,774.416H671.06c-4.186,0-7.582-3.393-7.582-7.582l0,0c0-4.19,3.396-7.587,7.582-7.587h184.72
			c4.19,0,7.582,3.396,7.582,7.587l0,0C863.362,771.023,859.97,774.416,855.78,774.416z"/>
		<path opacity="0.06" d="M855.78,806.119H671.06c-4.186,0-7.582-3.396-7.582-7.587l0,0c0-4.185,3.396-7.582,7.582-7.582h184.72
			c4.19,0,7.582,3.397,7.582,7.582l0,0C863.362,802.723,859.97,806.119,855.78,806.119z"/>
		<path opacity="0.06" d="M855.78,837.817H671.06c-4.186,0-7.582-3.396-7.582-7.582l0,0c0-4.189,3.396-7.587,7.582-7.587h184.72
			c4.19,0,7.582,3.397,7.582,7.587l0,0C863.362,834.421,859.97,837.817,855.78,837.817z"/>
		<path opacity="0.06" d="M855.78,869.521H671.06c-4.186,0-7.582-3.396-7.582-7.586l0,0c0-4.186,3.396-7.582,7.582-7.582h184.72
			c4.19,0,7.582,3.396,7.582,7.582l0,0C863.362,866.124,859.97,869.521,855.78,869.521z"/>
		<path opacity="0.06" d="M855.78,901.22H671.06c-4.186,0-7.582-3.397-7.582-7.582l0,0c0-4.19,3.396-7.587,7.582-7.587h184.72
			c4.19,0,7.582,3.396,7.582,7.587l0,0C863.362,897.822,859.97,901.22,855.78,901.22z"/>
		<path opacity="0.06" d="M855.78,932.918H671.06c-4.186,0-7.582-3.392-7.582-7.582l0,0c0-4.189,3.396-7.582,7.582-7.582h184.72
			c4.19,0,7.582,3.393,7.582,7.582l0,0C863.362,929.526,859.97,932.918,855.78,932.918z"/>
		<path opacity="0.06" d="M855.78,964.621H671.06c-4.186,0-7.582-3.396-7.582-7.582l0,0c0-4.189,3.396-7.587,7.582-7.587h184.72
			c4.19,0,7.582,3.397,7.582,7.587l0,0C863.362,961.225,859.97,964.621,855.78,964.621z"/>
		<path opacity="0.06" d="M855.78,996.319H671.06c-4.186,0-7.582-3.392-7.582-7.582l0,0c0-4.189,3.396-7.582,7.582-7.582h184.72
			c4.19,0,7.582,3.393,7.582,7.582l0,0C863.362,992.928,859.97,996.319,855.78,996.319z"/>
		<circle opacity="0.06" cx="689.979" cy="626.606" r="64.056"/>
		<path opacity="0.06" d="M725.908,617.345l-52.1-30.077c-7.127-4.117-16.041,1.029-16.041,9.262v60.157
			c0,8.229,8.914,13.377,16.041,9.262l52.1-30.08C733.035,631.754,733.035,621.46,725.908,617.345z"/>
	</g>
</g>
<g display="none">
	<path display="inline" fill="#FF66FF" d="M797.76,550.438c1.422-2.1,2.885-4.291,3.266-6.799c0.38-2.505-0.657-5.424-3.008-6.376
		c1.867-3.254,2.73-8.089,1.313-11.559c-1.412-3.472-5.456-5.938-9.031-4.807c-3.237,1.025-5.091,4.417-6.058,7.671
		c-2.604,8.778-0.934,18.716,4.401,26.157C792.631,553.915,795.475,553.803,797.76,550.438z"/>
	<path display="inline" fill="#0040C9" d="M925.568,573.096c-4.631-0.629-9.262-1.984-13.044-4.734
		c-3.781-2.744-6.615-7.033-6.836-11.701c-0.216-4.669,2.59-9.539,7.028-11c4.359-1.437,9.074,0.474,13.072,2.723
		c4.002,2.25,8.014,4.953,12.593,5.223c3.575,0.211,7.122-1.107,10.692-0.793c6.64,0.586,11.885,7.744,10.449,14.254
		c3.19,3.734,4.87,8.823,3.716,13.598c-1.158,4.771-4.124,8.961-7.732,12.293c-3.607,3.333-7.854,5.893-12.123,8.316
		c0.698-4.488,0.609-9.723,0.215-14.248c-0.389-4.522-1.989-9.102-5.277-12.236C935.035,571.652,929.668,571.153,925.568,573.096z"
		/>
	<path display="inline" fill="#22134D" d="M855.062,1053.083c0.615,5.142-3.739,9.665-8.492,11.725
		c-4.748,2.06-10.055,2.486-14.901,4.293c-4.852,1.812-9.576,5.729-9.769,10.899h57.335c1.38-8.896,1.436-18.055,0.062-26.955
		C871.831,1050.146,862.888,1051.38,855.062,1053.083z"/>
	<path display="inline" fill="#22134D" d="M952.255,1053.083c0.614,5.142-3.739,9.665-8.492,11.725
		c-4.749,2.06-10.055,2.486-14.906,4.293c-4.852,1.812-9.571,5.729-9.765,10.899h57.336c1.379-8.896,1.436-18.055,0.061-26.955
		C969.019,1050.146,960.081,1051.38,952.255,1053.083z"/>
	<path display="inline" fill="#41298B" d="M884.34,1056.179c13.653-44.234,23.238-91.046,27.391-137.031
		c4.763-52.798,29.888-104.686,34.11-157.531c-4.166-6.381-9.52-11.889-16.563-14.798c-7.047-2.909-14.587-4.378-22.075-5.827
		c-9.107-1.765-15.033-0.441-24.14-2.205c-10.205,105.797-20.41,211.596-30.615,317.393H884.34z"/>
	<path display="inline" fill="#41298B" d="M916.864,738.786c10.665,105.797,21.334,211.596,32.004,317.393h30.587
		c5.4-48.002,5.902-98.079,0.76-146.105c-5.64-52.714,8.863-108.51,2.679-161.162c-5.334-5.443-11.659-9.797-19.138-11.275
		c-7.479-1.478-15.16-1.444-22.784-1.402C931.696,736.28,926.14,738.734,916.864,738.786z"/>
	<path display="inline" opacity="0.2" d="M982.893,748.911c-5.334-5.443-11.659-9.797-19.138-11.275
		c-7.479-1.478-15.16-1.444-22.784-1.402c-9.275,0.047-14.831,2.501-24.107,2.553c0.146,1.436,0.287,2.876,0.432,4.312
		c-3.34-0.788-6.719-1.45-10.092-2.106c-8.178-1.582-13.809-0.699-21.461-1.773c-0.957,0.436-1.905,0.891-2.853,1.346
		c-0.507,5.274-1.014,10.543-1.525,15.816c27.537,24.567,66.518,35.959,102.964,30.221
		C984.634,773.919,984.348,761.325,982.893,748.911z"/>
	<path display="inline" fill="#FFC43A" d="M937.823,601.552c-19.345,3.913-36.038,17.158-46.731,33.744
		c-10.688,16.591-15.807,36.283-17.524,55.942c-1.717,19.659-0.201,39.444,1.464,59.108c34.129,18.547,78.05,22.521,115.201,11.186
		c2.505-21.973,5.687-44.724,4.837-66.817c-0.854-22.099-5.208-44.399-15.709-63.862c-4.067-7.539-9.111-14.689-15.793-20.058
		C956.891,605.432,946.221,599.854,937.823,601.552z"/>
	<path display="inline" opacity="0.2" d="M956.933,730.124h36.784c0.137-1.44,0.259-2.876,0.376-4.312h-38.314l-12.565-46.886
		c-1.262-4.711-6.104-8.53-10.814-8.53H876.8c-1.572,6.859-2.623,13.851-3.233,20.842c-1.131,12.931-0.849,25.913-0.061,38.886
		h41.082H956.933z"/>
	<g display="inline">
		<rect x="902.699" y="727.966" fill="#FFFFFF" width="84.688" height="4.313"/>
		<rect x="902.699" y="727.966" opacity="0.3" width="84.688" height="4.313"/>
		<path fill="#FFFFFF" d="M945.043,732.278h-84.688l-13.715-51.193c-1.262-4.716,1.53-8.535,6.245-8.535h67.625
			c4.71,0,9.553,3.819,10.819,8.535L945.043,732.278z"/>
	</g>
	<path display="inline" opacity="0.2" d="M958.917,662.838c3.697-3.665,8.728-6.02,14.995-6.043
		c1.314-0.005,2.581,0.173,3.819,0.427c4.261-0.137,8.624,0.798,12.725,3.059c-2.501-10.232-6.095-20.151-11.097-29.428
		c-4.067-7.539-9.111-14.689-15.793-20.058c-0.999-0.802-2.092-1.604-3.251-2.393c-6.123,16.069-9.825,38.985-1.698,53.938
		C958.706,662.509,958.823,662.669,958.917,662.838z"/>
	<path display="inline" opacity="0.2" d="M990.649,705.497c0.038,0.356,0.08,0.708,0.104,1.069
		c0.736,12.922-10.327,24.126-22.676,27.997c-12.345,3.87-26.177,1.318-38.995-0.456c-0.313,0.526-0.614,1.07-0.9,1.629
		c-1.211-0.878-2.417-1.783-3.856-2.121c-1.765-0.413-4.026,0.502-4.219,2.304c-1.797,0.741-3.607-1.032-4.996-2.393
		c-1.394-1.361-2.971-2.947-4.908-2.792c-1.355,0.112-2.533,1.14-3.063,2.393c-0.53,1.258-0.488,2.693-0.15,4.012
		c1.037,4.021,4.688,6.968,8.643,8.226c3.153,1.004,6.493,1.098,9.815,0.929c0.005,0.718,0.033,1.426,0.127,2.125
		c13.24,3.369,26.88,5.706,40.523,4.964c8.821-0.474,17.665-2.336,25.759-5.809c1.74-14.985,3.326-30.178,3.336-45.159
		C993.783,703.605,992.263,704.638,990.649,705.497z"/>
	<path display="inline" fill="#FFC43A" d="M932.071,602.453c-23.567,14.761-54.375,17.271-80.021,6.517
		c-25.651-10.754-45.455-34.48-51.447-61.638c-5.114-1.014-11.115,0.441-14.573,4.34c1.896,27.786,16.065,55.886,35.701,75.634
		c19.636,19.753,46.525,32.131,74.301,34.19c13.518,1.004,27.147-11.19,34.162-22.789
		C937.203,627.108,936.837,615.14,932.071,602.453z"/>
	<path display="inline" fill="#FF66FF" d="M933.938,734.234c-1.6,0.85-3.585,0.277-5.198-0.554c-1.609-0.83-3.163-1.924-4.964-2.12
		c-1.803-0.202-3.938,0.98-3.909,2.791c-1.698,0.953-3.711-0.591-5.255-1.773c-1.539-1.187-3.298-2.571-5.203-2.182
		c-1.332,0.272-2.374,1.436-2.754,2.745c-0.376,1.309-0.16,2.73,0.333,3.997c1.511,3.871,5.489,6.353,9.571,7.127
		c4.077,0.774,8.286,0.104,12.354-0.736C932.586,742.778,935.176,737.772,933.938,734.234z"/>
	<path display="inline" fill="#FFC43A" d="M944.65,602.127c18.415,4.488,36.137,12.765,50.17,25.508
		c14.038,12.743,24.183,30.154,26.505,48.969c2.318,18.814-3.707,38.873-17.313,52.071c-9.802,9.515-22.939,15.112-36.391,17.486
		c-13.457,2.374-27.279,1.694-40.824-0.056c-1.221-4.688-0.217-10.215,1.759-14.63c12.94,0.216,26.979,1.089,38.77-4.236
		c11.791-5.33,21.428-17.783,19.143-30.517c-1.642-9.153-8.812-16.262-16.22-21.878c-7.408-5.621-15.609-10.59-20.996-18.168
		C939.231,642.588,940.333,618.865,944.65,602.127z"/>
	<path display="inline" fill="#FF66FF" d="M931.047,590.766c-0.365,6.625-0.731,13.25-1.098,19.875
		c5.518,3.331,13.236,4.105,19.059,1.351c-0.263-6.813-0.591-13.581-0.858-20.391C943.41,588.952,936.086,588.743,931.047,590.766z"
		/>
	<path display="inline" opacity="0.2" d="M948.543,600.928c-0.136-3.105-0.271-6.212-0.394-9.33
		c-4.739-2.646-12.063-2.854-17.103-0.832c-0.365,6.625-0.731,13.25-1.098,19.875C936.655,608.52,942.975,605.226,948.543,600.928z"
		/>
	<path display="inline" fill="#FF66FF" d="M924.695,566.138c-2.351,11.152-2.088,22.85,0.761,33.885
		c6.699,1.931,15.164,1.511,21.005-2.302c5.837-3.81,9.773-10.525,9.886-17.498c0.113-6.973-3.758-13.953-9.899-17.252
		C940.3,559.672,929.941,561.539,924.695,566.138z"/>
	<path display="inline" fill="#0040C9" d="M920.42,571.158c6.846,3.547,15.216,4.025,22.423,1.28
		c0.253,2.379,1.098,4.659,2.177,6.794c-0.079,1.398-0.234,3.229-0.314,4.627h1.863c-0.399-1.624-0.197-4.021,0.661-5.457
		s2.811-2.285,4.293-1.516c0.985,0.516,1.567,1.623,1.666,2.73s-0.221,2.215-0.671,3.23c-0.976,2.203-2.59,4.122-4.594,5.467
		c-0.83,3.276-0.807,6.681,0.361,9.854c3.721-3.819,7.578-8.286,9.501-13.257c1.929-4.971,2.492-10.563,0.981-15.674
		c-1.512-5.113-5.232-9.655-10.201-11.594c-3.791-1.482-8.027-1.4-12.049-0.755c-3.847,0.614-7.694,1.767-10.848,4.062
		C922.523,563.245,920.584,567.264,920.42,571.158z"/>
	<path display="inline" opacity="0.2" d="M902.699,702.414c1.036,3.871-1.258,7.01-5.134,7.01c-3.87,0-7.849-3.139-8.886-7.01
		s1.262-7.01,5.133-7.01S901.662,698.543,902.699,702.414z"/>
</g>
</svg>
